<svg width="34" height="35" viewBox="0 0 34 35" fill="" xmlns="http://www.w3.org/2000/svg">
<g id="Frame">
<path id="Vector" d="M17.0023 4.375H17C11.1562 4.375 6.375 9.29688 6.375 15.3125V27.3438H14.3574C13.9958 26.2899 13.8115 25.1802 13.8125 24.0625C13.8125 18.6259 18.0937 14.2188 23.375 14.2188C24.8496 14.2166 26.3044 14.5671 27.625 15.2424C27.5885 9.25894 22.8228 4.375 17.0023 4.375ZM14.8086 28.4375H4.25V30.625H2.125V32.8125H18.9922C17.182 31.8482 15.7168 30.3159 14.8086 28.4375ZM30.503 30.625C29.7247 31.5199 28.7945 32.2612 27.7578 32.8125H31.875V30.625H30.503Z"/>
<path id="Vector_2" d="M23.1094 15.3166C18.627 15.4574 15.0158 19.1748 14.879 23.7891C14.7299 28.8135 18.7568 32.9602 23.639 32.8067C28.1231 32.6676 31.7342 28.9502 31.871 24.3343C32.0198 19.3085 27.9932 15.1632 23.1094 15.3166ZM21.5077 28.9683L20.0052 27.4217L17 24.3278L18.5025 22.7811L21.5077 25.8741L27.5174 19.6875L29.0196 21.2342L21.5077 28.9683Z"/>
</g>
</svg>
