<svg width="20" height="24" viewBox="0 0 20 24" fill="none" xmlns="http://www.w3.org/2000/svg">
<g id="Group 427319539">
<path id="Vector" d="M10.0085 0.163452C5.59391 0.163452 2.0191 3.76745 2 8.25226C2 9.86271 2.46113 11.396 3.31694 12.7064L3.40074 12.8305L3.44937 12.9144L3.48932 12.9776C3.51624 13.0186 3.5449 13.0579 3.57703 13.0967L3.597 13.1193L8.68979 19.275C8.85315 19.4723 9.05565 19.6306 9.2834 19.7389C9.51115 19.8473 9.75876 19.9032 10.0092 19.9028C10.2597 19.9023 10.5072 19.8456 10.7346 19.7365C10.962 19.6273 11.164 19.4684 11.3267 19.2705L16.3917 13.1138L16.3583 13.1522C16.4082 13.0979 16.4537 13.0394 16.4942 12.9771L16.5333 12.9149C16.5493 12.8887 16.5806 12.8336 16.5797 12.8354C17.4777 11.5314 17.9813 9.94213 18 8.26715C18 3.77738 14.4156 0.163452 10.0085 0.163452ZM10.0085 1.96839C13.4678 1.96839 16.2632 4.78679 16.2632 8.25632C16.2514 9.53539 15.8607 10.7796 15.1442 11.8197L15.0691 11.9433L10.0063 18.0982L4.91308 11.9424L4.86401 11.8581L4.83883 11.8197C4.12049 10.7817 3.73492 9.53492 3.73682 8.25632C3.75201 4.77957 6.54004 1.96839 10.0085 1.96839Z" fill="#1FA6C7"/>
<path id="Vector_2" d="M16.7761 16.9042C16.9609 16.7942 17.1797 16.7593 17.3887 16.8065C17.5976 16.8537 17.7815 16.9795 17.9035 17.1588L17.9393 17.216L19.768 20.4107C19.9145 20.6665 19.9942 20.9562 19.9997 21.2524C20.0052 21.5485 19.9362 21.8412 19.7993 22.1024C19.6625 22.3637 19.4622 22.5848 19.2178 22.7448C18.9733 22.9048 18.6928 22.9983 18.4028 23.0164L18.2893 23.0195L1.69177 22.9271C1.40247 22.9255 1.11835 22.8486 0.866279 22.7039C0.614208 22.5591 0.402512 22.3512 0.251205 22.0997C0.0998968 21.8483 0.0139764 21.5617 0.00156612 21.267C-0.0108442 20.9722 0.0506656 20.6792 0.180281 20.4154L0.233442 20.3153L1.97629 17.285C2.08714 17.0909 2.26748 16.9483 2.47937 16.887C2.69126 16.8258 2.91818 16.8508 3.11239 16.9567C3.30661 17.0626 3.45296 17.2411 3.52068 17.4548C3.58839 17.6685 3.57218 17.9006 3.47545 18.1024L3.44398 18.1622L1.70113 21.1925L18.2986 21.2849L16.4699 18.0902C16.3562 17.8916 16.3247 17.655 16.3821 17.4326C16.4395 17.2102 16.5812 17.0201 16.7761 16.9042Z" fill="#1FA6C7"/>
<path id="Vector_3" d="M9.99963 4.31909C9.60566 4.31914 9.21556 4.39981 8.8516 4.55649C8.48765 4.71317 8.15696 4.94278 7.87841 5.23224C7.59987 5.52169 7.37894 5.8653 7.22822 6.24346C7.0775 6.62162 6.99995 7.02692 7 7.43621C7.00005 7.84551 7.07769 8.25078 7.2285 8.6289C7.37931 9.00702 7.60033 9.35058 7.87894 9.63996C8.15756 9.92934 8.4883 10.1589 8.8523 10.3155C9.21629 10.472 9.60641 10.5526 10.0004 10.5526C10.796 10.5525 11.559 10.224 12.1216 9.63941C12.6841 9.05484 13.0001 8.26204 13 7.43543C12.9999 6.60882 12.6837 5.81611 12.1211 5.23169C11.5584 4.64726 10.7953 4.31899 9.99963 4.31909ZM9.99963 5.87726C10.3975 5.87737 10.779 6.04167 11.0603 6.33403C11.3416 6.62639 11.4995 7.02286 11.4994 7.43621C11.4993 7.84957 11.3412 8.24595 11.0598 8.53817C10.7784 8.83038 10.3968 8.99449 9.99888 8.99438C9.601 8.99428 9.21946 8.82998 8.93819 8.53762C8.65692 8.24526 8.49896 7.84879 8.49906 7.43543C8.49916 7.02208 8.65731 6.62569 8.93872 6.33348C9.22013 6.04127 9.60175 5.87716 9.99963 5.87726Z" fill="#17D8FF"/>
</g>
</svg>
