<svg width="14" height="16" viewBox="0 0 14 16" fill="none" xmlns="http://www.w3.org/2000/svg">
<path id="Vector" d="M9.08143 11.1589L8.3254 11.7512C8.3254 11.7512 7.56938 12.1265 6.65969 11.2673C5.75205 10.4061 4.1396 8.43748 3.68476 7.30929C3.22991 6.17901 4.1396 5.6952 4.1396 5.6952C4.1396 5.6952 5.32384 4.64625 5.37301 4.45857C5.42423 4.27088 6.07986 3.51598 4.66821 1.49941C3.25655 -0.519239 2.92873 -0.114675 2.17271 0.504684C1.41668 1.12196 0.355377 2.33356 0.130003 3.73494C-0.097419 5.13423 -0.246985 6.85676 1.66869 9.92436C3.58436 12.992 6.48349 15.3338 8.09593 15.7092C9.71247 16.0846 10.8455 16.3265 12.4559 14.9293C14.0704 13.53 14.349 13.3965 13.6155 12.3997C12.8902 11.4008 11.2819 10.208 11.0401 10.1579C10.8004 10.1058 10.4542 10.0203 9.91121 10.4499C9.36827 10.8774 9.08143 11.1589 9.08143 11.1589Z" fill="#17D8FF"/>
</svg>
