<svg width="21" height="21" viewBox="0 0 21 21" fill="none" xmlns="http://www.w3.org/2000/svg">
<g id="Frame">
<path id="Vector" d="M17.69 16.7539L14.8974 13.9614L14.8962 13.9602C15.3747 13.3937 15.7649 12.7581 16.0535 12.075C16.4395 11.1623 16.6353 10.1931 16.6353 9.19435C16.6353 8.1956 16.4395 7.22642 16.0535 6.31368C15.6807 5.4324 15.1472 4.64106 14.4678 3.96166C13.7884 3.28226 12.9971 2.74875 12.1158 2.376C11.2031 1.98994 10.2339 1.79419 9.23512 1.79419C8.23637 1.79419 7.26719 1.98994 6.35445 2.376C5.47317 2.74875 4.68184 3.28224 4.00243 3.96166C3.32301 4.64106 2.78952 5.43242 2.41677 6.31368C2.03071 7.22642 1.83496 8.19562 1.83496 9.19435C1.83496 10.1931 2.03071 11.1623 2.41677 12.075C2.78952 12.9563 3.32301 13.7477 4.00243 14.4271C4.68184 15.1065 5.47319 15.64 6.35445 16.0127C7.26719 16.3987 8.23639 16.5945 9.23512 16.5945C10.2339 16.5945 11.2031 16.3987 12.1158 16.0127C12.788 15.7284 13.4077 15.3502 13.9655 14.8854C13.9668 14.8867 13.968 14.8881 13.9694 14.8894L16.7619 17.682C16.8901 17.8102 17.058 17.8742 17.2259 17.8742C17.3938 17.8742 17.5618 17.8101 17.69 17.682C17.9462 17.4257 17.9462 17.0102 17.69 16.7539ZM9.23512 15.3293C7.59641 15.3293 6.05578 14.6912 4.89702 13.5325C3.73827 12.3737 3.10013 10.8331 3.10013 9.19435C3.10013 7.55563 3.73827 6.015 4.89702 4.85625C6.05576 3.6975 7.59638 3.05936 9.23512 3.05936C10.8739 3.05936 12.4145 3.6975 13.5732 4.85625C14.732 6.01498 15.3701 7.55561 15.3701 9.19435C15.3701 10.8331 14.732 12.3737 13.5732 13.5325C12.4145 14.6912 10.8738 15.3293 9.23512 15.3293Z" fill="white"/>
</g>
</svg>
